# xmcd CD database file
#
# Track frame offsets:
#	150
#	14437
#	42750
#	66412
#	85125
#	117450
#
# Disc length: 2039 seconds
#
# Revision: 0
# Processed by: cddbd v1.5.1PL0 Copyright (c) Steve Scherf et al.
# Submitted via: CDex 1.51
#
DISCID=4b07f506
DTITLE=Manfred Zepf meets Andrew Cyrille - Paintings
DYEAR=1987
DGENRE=Jazz
TTITLE0=Intro - Jamile
TTITLE1=Jamile
TTITLE2=Scent of Spring
TTITLE3=Interlude
TTITLE4=Arcsong
TTITLE5=Waiting
EXTD=YEAR: 1987
EXTT0=
EXTT1=
EXTT2=
EXTT3=
EXTT4=
EXTT5=
PLAYORDER=
